<svg width="25" height="28" viewBox="0 0 25 28" fill="none" xmlns="http://www.w3.org/2000/svg">
<path d="M12.9987 5.05206C12.9995 5.03479 13 5.01746 13 5C13 4.44769 12.5523 4 12 4C11.4478 4 11 4.44769 11 5C11 5.01746 11.0005 5.03485 11.0014 5.05212C7.6537 5.53461 4.50367 9.2995 5.00001 13.5C5.25709 14.7854 4.44764 15.4664 3.60511 16.1752C2.80897 16.845 1.98341 17.5396 2.00025 18.7925C2.00025 20.5484 3.00001 21.5 4.46827 21.9719C4.46827 21.9719 7.15736 23 12.0001 23C16.8429 23 19.532 21.9719 19.532 21.9719C21.0003 21.5 22.0003 20.5 22 18.7925C21.9999 17.5288 21.1748 16.8339 20.3831 16.1672C19.5443 15.4609 18.7431 14.7861 19.0003 13.5C19.4966 9.29938 16.3464 5.53442 12.9987 5.05206Z" fill="white"/>
<path d="M8.42738 24.2C7.98548 24.5314 7.89601 25.1581 8.2273 25.6C10.1273 28.1334 13.9274 28.1334 15.8274 25.6C16.1587 25.1581 16.0692 24.5314 15.6273 24.2C15.1856 23.8687 14.5587 23.9582 14.2273 24.4C13.1273 25.8666 10.9274 25.8666 9.8274 24.4C9.49598 23.9582 8.86915 23.8687 8.42738 24.2Z" fill="white"/>
<rect x="12" width="13" height="14" rx="6.5" fill="#20C1CF"/>
<path d="M19.2678 6.032C19.8758 6.176 20.3678 6.46 20.7438 6.884C21.1278 7.3 21.3198 7.824 21.3198 8.456C21.3198 9.296 21.0358 9.956 20.4678 10.436C19.8998 10.916 19.2038 11.156 18.3798 11.156C17.7398 11.156 17.1638 11.008 16.6518 10.712C16.1478 10.416 15.7838 9.984 15.5598 9.416L16.7358 8.732C16.9838 9.452 17.5318 9.812 18.3798 9.812C18.8598 9.812 19.2398 9.692 19.5198 9.452C19.7998 9.204 19.9398 8.872 19.9398 8.456C19.9398 8.04 19.7998 7.712 19.5198 7.472C19.2398 7.232 18.8598 7.112 18.3798 7.112H18.0678L17.5158 6.284L19.3278 3.896H15.8118V2.6H20.9718V3.776L19.2678 6.032Z" fill="white"/>
</svg>
