<svg width="18" height="18" viewBox="0 0 18 18" fill="none" xmlns="http://www.w3.org/2000/svg">
<path d="M17.6921 7.33639C17.7755 7.46899 17.9902 7.40909 17.9854 7.25255C17.9039 4.58206 17.5939 2.10025 16.8501 1.32164C15.1647 -0.442385 8.24294 -0.137872 6.55762 0.503592C6.09603 0.679281 5.77291 0.91336 5.54705 1.17714C5.46974 1.26743 5.54015 1.39746 5.65901 1.3984C6.36097 1.40392 7.07709 1.45575 7.79274 1.55382C10.8177 1.96834 13.9884 3.22823 16.2441 5.51422C16.7875 6.06486 17.2746 6.67206 17.6921 7.33639Z" fill="white"/>
<path fill-rule="evenodd" clip-rule="evenodd" d="M17.7905 13.9143C17.7384 14.4626 17.6824 14.8915 17.6288 15.1536C17.6267 15.1638 17.6125 15.1623 17.6125 15.1518C17.6125 15.1414 17.5969 15.1406 17.5943 15.1507C16.9695 17.6108 14.9247 18 9.96515 18C2.76157 18 1.04044 16.6557 0.213714 10.3838C-0.454205 5.31662 0.309594 3.46584 4.4264 2.94178C5.4148 2.86123 6.48688 2.88889 7.5891 3.03993C10.3793 3.42227 13.2114 4.57644 15.1764 6.56779C16.8843 8.29851 17.9791 10.7011 17.7905 13.9143ZM11.25 13.5C11.25 13.0858 10.9142 12.75 10.5 12.75H4.50001C4.08579 12.75 3.75001 13.0858 3.75001 13.5C3.75001 13.9142 4.08579 14.25 4.50001 14.25H10.5C10.9142 14.25 11.25 13.9142 11.25 13.5ZM4.50001 9.75C4.08579 9.75 3.75001 10.0858 3.75001 10.5C3.75001 10.9142 4.08579 11.25 4.50001 11.25H7.50001C7.91422 11.25 8.25001 10.9142 8.25001 10.5C8.25001 10.0858 7.91422 9.75 7.50001 9.75H4.50001Z" fill="white"/>
</svg>
