<svg width="17" height="18" viewBox="0 0 17 18" fill="none" xmlns="http://www.w3.org/2000/svg">
<path d="M6.75 9C6.75 9.82843 7.42157 10.5 8.25 10.5C9.07843 10.5 9.75 9.82843 9.75 9C9.75 8.17157 9.07843 7.5 8.25 7.5C7.42157 7.5 6.75 8.17157 6.75 9Z" fill="white"/>
<path fill-rule="evenodd" clip-rule="evenodd" d="M10.4793 1.81982C10.0186 -0.606605 6.48137 -0.606606 6.02072 1.81982C5.76548 3.16431 4.34946 3.96771 3.03698 3.51269C0.668332 2.69151 -1.1003 5.70189 0.807701 7.30713C1.86493 8.1966 1.86493 9.8034 0.807701 10.6929C-1.1003 12.2981 0.668332 15.3085 3.03698 14.4873C4.34946 14.0323 5.76548 14.8357 6.02072 16.1802C6.48137 18.6066 10.0186 18.6066 10.4793 16.1802C10.7345 14.8357 12.1505 14.0323 13.463 14.4873C15.8317 15.3085 17.6003 12.2981 15.6923 10.6929C14.6351 9.8034 14.6351 8.1966 15.6923 7.30713C17.6003 5.70189 15.8317 2.69151 13.463 3.51269C12.1505 3.96771 10.7345 3.16431 10.4793 1.81982ZM5.25 9C5.25 10.6569 6.59315 12 8.25 12C9.90686 12 11.25 10.6569 11.25 9C11.25 7.34315 9.90686 6 8.25 6C6.59315 6 5.25 7.34315 5.25 9Z" fill="white"/>
</svg>
